<?xml version="1.0" encoding="UTF-8"?>
<svg xmlns="http://www.w3.org/2000/svg" xmlns:xlink="http://www.w3.org/1999/xlink" width="0" height="0">
<symbol id="group-input" viewBox="0 0 23 23">
<path fill-rule="evenodd" clip-rule="evenodd" d="M5 0C2.23859 0 0 2.23858 0 5V15C0 17.1636 1.37418 19.0062 3.29736 19.7026C3.9938 21.6258 5.83643 23 8 23H18C20.7614 23 23 20.7614 23 18V8C23 5.83643 21.6258 3.99382 19.7026 3.29738C19.0062 1.3742 17.1636 0 15 0H5ZM8 21C7.11151 21 6.3132 20.6137 5.76389 20C5.28885 19.4692 5 18.7683 5 18V8C5 6.34315 6.34314 5 8 5H18C18.7684 5 19.4692 5.28886 20 5.76389C20.6137 6.31322 21 7.1115 21 8V18C21 19.6569 19.6569 21 18 21H8ZM8 3H17.2361C16.6868 2.38625 15.8885 2 15 2H5C3.34314 2 2 3.34315 2 5V15C2 15.8885 2.38626 16.6868 3 17.2361V8C3 5.23858 5.23859 3 8 3Z"/>
</symbol>

<symbol id="input" viewBox="0 0 20 20" >Ц
<path fill-rule="evenodd" clip-rule="evenodd" d="M5 0C2.23858 0 0 2.23858 0 5V15C0 17.7614 2.23858 20 5 20H15C17.7614 20 20 17.7614 20 15V5C20 2.23858 17.7614 0 15 0H5ZM5 2C3.34315 2 2 3.34315 2 5V15C2 16.6569 3.34315 18 5 18H15C16.6569 18 18 16.6569 18 15V5C18 3.34315 16.6569 2 15 2H5Z"/>
</symbol>

<symbol id="interminate" viewBox="0 0 14 14" >
<path d="M0 3C0 1.34315 1.34315 0 3 0H11C12.6569 0 14 1.34315 14 3V11C14 12.6569 12.6569 14 11 14H3C1.34315 14 0 12.6569 0 11V3Z"/>
</symbol>

<symbol id="checked" viewBox="0 0 20 20" >
<path d="M19.5826 3.08372C17.1375 6.15946 11.1933 13.6494 6.42149 19.7637C6.18767 20.0633 5.76964 20.0802 5.5146 19.8019L0.503707 14.333C-0.169549 13.5982 -0.167658 12.4085 0.507934 11.6762C1.17659 10.9515 2.25617 10.9457 2.93139 11.6632L5.8174 14.7298L16.9904 0.6458C17.6051 -0.129105 18.6792 -0.219286 19.3959 0.44382C20.1213 1.11504 20.2056 2.30003 19.5826 3.08372Z"/>
</symbol>

</svg>