<?xml version="1.0" encoding="UTF-8"?>
<svg xmlns="http://www.w3.org/2000/svg" xmlns:xlink="http://www.w3.org/1999/xlink" width="0" height="0">

<symbol id="icons-pen" viewBox="0 0 18 18">
<path d="M13.7831 0.465737C14.4059 -0.155246 15.4158 -0.155246 16.0386 0.465737L17.5329 1.95555C18.1557 2.57653 18.1557 3.58334 17.5329 4.20433L15.8976 5.83469C15.8665 5.86574 15.816 5.86574 15.7849 5.83469L12.1479 2.20854C12.1167 2.17749 12.1167 2.12715 12.1479 2.0961L13.7831 0.465737Z"/>
<path d="M11.5394 2.65732C11.5705 2.62627 11.621 2.62627 11.6522 2.65732L15.2891 6.28347C15.3203 6.31452 15.3203 6.36486 15.2891 6.39591L5.39315 16.2624C5.36201 16.2935 5.31152 16.2935 5.28038 16.2624L1.64339 12.6363C1.61225 12.6052 1.61225 12.5549 1.64339 12.5238L11.5394 2.65732Z"/>
<path d="M4.75547 16.6981L1.20289 13.1561C1.15892 13.1123 1.08379 13.1332 1.06903 13.1934L0.0117621 17.5077C-0.0604221 17.8022 0.21143 18.0657 0.504691 17.9854L4.7202 16.831C4.77918 16.8148 4.79872 16.7412 4.75547 16.6981Z"/>
</symbol>

<symbol id="icons-cross" viewBox="0 0 18 18">
<path d="M0.718 13.8151C-0.239333 14.7725 -0.239333 16.3246 0.718 17.282C1.67533 18.2393 3.22748 18.2393 4.1849 17.282L8.99996 12.4669L13.8151 17.282C14.7724 18.2393 16.3246 18.2393 17.2819 17.282C18.2392 16.3247 18.2392 14.7725 17.2819 13.8152L12.4668 9.00005L17.282 4.18486C18.2393 3.2275 18.2393 1.67535 17.282 0.717999C16.3247 -0.239333 14.7724 -0.239333 13.8151 0.717999L8.99996 5.53318L4.18482 0.718063C3.22748 -0.23929 1.67533 -0.23929 0.718 0.718063C-0.239333 1.6754 -0.239333 3.22757 0.718 4.1849L5.53314 8.99999L0.718 13.8151Z"/>
</symbol>

</svg>
